<svg width="217" height="54" viewBox="0 0 217 54" fill="none" xmlns="http://www.w3.org/2000/svg">
<path d="M43.7855 29.399C43.7855 39.5842 35.3934 47.8742 25.0001 47.8742C14.6067 47.8742 6.2146 39.5842 6.2146 29.399C6.2146 19.2138 14.6067 10.9238 25.0001 10.9238C35.3934 10.9238 43.7855 19.2138 43.7855 29.399Z" stroke="#F6F6F6" stroke-width="2.5"/>
<path d="M48.75 29.3989C48.75 42.2765 38.1358 52.75 25 52.75C11.8642 52.75 1.25 42.2765 1.25 29.3989C1.25 16.5214 11.8642 6.04785 25 6.04785C38.1358 6.04785 48.75 16.5214 48.75 29.3989Z" stroke="#F6F6F6" stroke-width="2.5"/>
<path d="M22.1882 26.6756L33.093 21.306L27.7234 32.2108L16.8186 37.5804L22.1882 26.6756Z" stroke="#F6F6F6" stroke-width="2.5"/>
<circle cx="24.9114" cy="29.4432" r="3.52128" stroke="#F6F6F6" stroke-width="2"/>
<rect x="24.4903" y="15.015" width="1.10816" height="2.5266" rx="0.554078" fill="#F6F6F6" stroke="#F6F6F6" stroke-width="1.10816"/>
<rect x="39.6055" y="29.0221" width="1.10816" height="2.5266" rx="0.554078" transform="rotate(90 39.6055 29.0221)" fill="#F6F6F6" stroke="#F6F6F6" stroke-width="1.10816"/>
<rect x="13.0098" y="29.0221" width="1.10816" height="2.5266" rx="0.554078" transform="rotate(90 13.0098 29.0221)" fill="#F6F6F6" stroke="#F6F6F6" stroke-width="1.10816"/>
<rect x="25.5985" y="44.1373" width="1.10816" height="2.5266" rx="0.554078" transform="rotate(-180 25.5985 44.1373)" fill="#F6F6F6" stroke="#F6F6F6" stroke-width="1.10816"/>
<path d="M91.584 14.872V18.94H84.888V40H79.848V18.94H73.152V14.872H91.584ZM102.101 23.152C102.749 22.096 103.589 21.268 104.621 20.668C105.677 20.068 106.877 19.768 108.221 19.768V25.06H106.889C105.305 25.06 104.105 25.432 103.289 26.176C102.497 26.92 102.101 28.216 102.101 30.064V40H97.0613V20.056H102.101V23.152ZM115.972 17.68C115.084 17.68 114.34 17.404 113.74 16.852C113.164 16.276 112.876 15.568 112.876 14.728C112.876 13.888 113.164 13.192 113.74 12.64C114.34 12.064 115.084 11.776 115.972 11.776C116.86 11.776 117.592 12.064 118.168 12.64C118.768 13.192 119.068 13.888 119.068 14.728C119.068 15.568 118.768 16.276 118.168 16.852C117.592 17.404 116.86 17.68 115.972 17.68ZM118.456 20.056V40H113.416V20.056H118.456ZM130.276 22.936C130.924 22.024 131.812 21.268 132.94 20.668C134.092 20.044 135.4 19.732 136.864 19.732C138.568 19.732 140.104 20.152 141.472 20.992C142.864 21.832 143.956 23.032 144.748 24.592C145.564 26.128 145.972 27.916 145.972 29.956C145.972 31.996 145.564 33.808 144.748 35.392C143.956 36.952 142.864 38.164 141.472 39.028C140.104 39.892 138.568 40.324 136.864 40.324C135.4 40.324 134.104 40.024 132.976 39.424C131.872 38.824 130.972 38.068 130.276 37.156V49.504H125.236V20.056H130.276V22.936ZM140.824 29.956C140.824 28.756 140.572 27.724 140.068 26.86C139.588 25.972 138.94 25.3 138.124 24.844C137.332 24.388 136.468 24.16 135.532 24.16C134.62 24.16 133.756 24.4 132.94 24.88C132.148 25.336 131.5 26.008 130.996 26.896C130.516 27.784 130.276 28.828 130.276 30.028C130.276 31.228 130.516 32.272 130.996 33.16C131.5 34.048 132.148 34.732 132.94 35.212C133.756 35.668 134.62 35.896 135.532 35.896C136.468 35.896 137.332 35.656 138.124 35.176C138.94 34.696 139.588 34.012 140.068 33.124C140.572 32.236 140.824 31.18 140.824 29.956ZM185.022 14.872L178.002 40H172.062L167.346 22.108L162.414 40L156.51 40.036L149.742 14.872H155.142L159.57 34.384L164.682 14.872H170.298L175.122 34.276L179.586 14.872H185.022ZM192.669 17.68C191.781 17.68 191.037 17.404 190.437 16.852C189.861 16.276 189.573 15.568 189.573 14.728C189.573 13.888 189.861 13.192 190.437 12.64C191.037 12.064 191.781 11.776 192.669 11.776C193.557 11.776 194.289 12.064 194.865 12.64C195.465 13.192 195.765 13.888 195.765 14.728C195.765 15.568 195.465 16.276 194.865 16.852C194.289 17.404 193.557 17.68 192.669 17.68ZM195.153 20.056V40H190.113V20.056H195.153ZM206.54 35.86H215.432V40H200.816V35.932L209.528 24.196H200.852V20.056H215.324V24.124L206.54 35.86Z" fill="#F6F6F6"/>
</svg>
